<?xml version="1.0" encoding="UTF-8" standalone="no"?>
<!DOCTYPE svg PUBLIC "-//W3C//DTD SVG 1.1//EN" "http://www.w3.org/Graphics/SVG/1.1/DTD/svg11.dtd">
<svg xmlns="http://www.w3.org/2000/svg" version="1.1" viewBox="0.00 0.00 256.00 74.00">
<g stroke-width="2.00" fill="none" stroke-linecap="butt">
<path stroke="#aecb92" vector-effect="non-scaling-stroke" d="
  M 170.83 11.50
  L 170.02 11.49"
/>
<path stroke="#91e8f5" vector-effect="non-scaling-stroke" d="
  M 174.71 15.59
  L 174.28 17.31"
/>
<path stroke="#91e8f5" vector-effect="non-scaling-stroke" d="
  M 157.60 16.84
  Q 157.23 16.89 157.14 15.81"
/>
<path stroke="#18909e" vector-effect="non-scaling-stroke" d="
  M 179.53 16.73
  Q 179.19 16.83 178.99 17.16"
/>
<path stroke="#91e8f5" vector-effect="non-scaling-stroke" d="
  M 183.93 15.60
  Q 184.80 16.45 184.44 17.07"
/>
<path stroke="#91e8f5" vector-effect="non-scaling-stroke" d="
  M 177.57 17.46
  Q 178.42 17.11 178.99 17.16"
/>
<path stroke="#87a7a8" vector-effect="non-scaling-stroke" d="
  M 178.99 17.16
  Q 180.12 17.77 181.25 17.76
  Q 181.91 17.75 181.56 17.19
  Q 181.14 16.52 179.53 16.73"
/>
<path stroke="#91e8f5" vector-effect="non-scaling-stroke" d="
  M 179.53 16.73
  L 177.94 15.42"
/>
<path stroke="#aecb92" vector-effect="non-scaling-stroke" d="
  M 103.12 26.46
  Q 107.37 27.81 109.80 30.54
  A 0.65 0.64 47.8 0 1 109.76 31.45
  L 107.21 33.82"
/>
<path stroke="#a0b890" vector-effect="non-scaling-stroke" d="
  M 100.88 33.33
  Q 95.59 31.71 91.53 34.74
  C 87.78 37.54 87.80 43.82 90.62 47.17
  Q 94.37 51.63 101.26 49.38
  Q 101.75 49.22 101.75 48.71
  L 101.77 40.88"
/>
<path stroke="#aecb92" vector-effect="non-scaling-stroke" d="
  M 109.67 41.04
  L 109.54 52.31
  Q 109.53 53.73 108.22 54.29
  L 102.16 56.87"
/>
<path stroke="#a4c3a0" vector-effect="non-scaling-stroke" d="
  M 90.51 56.45
  C 76.31 50.53 76.04 31.94 90.32 26.53"
/>
<path stroke="#aecb92" vector-effect="non-scaling-stroke" d="
  M 115.52 26.70
  L 112.46 26.80
  A 0.30 0.30 0.0 0 0 112.44 27.40
  L 114.32 27.60
  Q 114.91 27.67 114.90 28.27
  L 114.68 37.46"
/>
<path stroke="#a9c188" vector-effect="non-scaling-stroke" d="
  M 152.45 32.98
  L 145.55 33.04
  Q 145.03 33.05 145.03 33.57
  L 144.93 56.53"
/>
<path stroke="#9ab498" vector-effect="non-scaling-stroke" d="
  M 136.32 56.56
  L 136.23 33.55
  Q 136.23 33.02 135.70 33.02
  L 130.21 33.03"
/>
<path stroke="#a9c188" vector-effect="non-scaling-stroke" d="
  M 130.21 33.03
  L 127.23 32.99
  Q 126.67 32.98 126.70 32.42
  L 126.89 28.29
  A 0.64 0.63 4.8 0 0 126.33 27.63
  L 124.16 27.39
  Q 123.49 27.31 123.49 27.98
  L 123.57 56.56"
/>
<path stroke="#aecb92" vector-effect="non-scaling-stroke" d="
  M 115.11 56.57
  L 115.00 40.74"
/>
<path stroke="#a4c3a0" vector-effect="non-scaling-stroke" d="
  M 75.12 26.29
  L 75.03 56.74"
/>
<path stroke="#a4c3a0" vector-effect="non-scaling-stroke" d="
  M 66.29 56.59
  L 66.42 26.51"
/>
<path stroke="#447621" vector-effect="non-scaling-stroke" d="
  M 130.21 33.03
  Q 130.19 40.34 130.70 47.74
  Q 130.97 51.58 127.33 56.51"
/>
<path stroke="#aecb92" vector-effect="non-scaling-stroke" d="
  M 162.60 26.62
  Q 166.48 28.16 162.43 33.24"
/>
<path stroke="#578d1b" vector-effect="non-scaling-stroke" d="
  M 161.51 33.22
  L 152.45 32.98"
/>
<path stroke="#aecb92" vector-effect="non-scaling-stroke" d="
  M 152.45 32.98
  Q 155.11 33.04 154.07 27.55
  Q 153.99 27.12 153.57 27.04
  L 151.24 26.57"
/>
<path stroke="#9ab498" vector-effect="non-scaling-stroke" d="
  M 178.74 56.66
  L 176.80 51.64
  A 1.39 1.38 -10.4 0 0 175.50 50.75
  L 164.50 50.75
  A 1.23 1.23 0.0 0 0 163.35 51.55
  L 161.43 56.63"
/>
<path stroke="#a9c188" vector-effect="non-scaling-stroke" d="
  M 152.49 56.63
  L 161.42 36.06"
/>
<path stroke="#a4c3a0" vector-effect="non-scaling-stroke" d="
  M 51.60 26.92
  L 56.68 29.80
  Q 57.42 30.22 56.57 30.22
  L 31.52 30.45
  Q 31.10 30.46 31.20 30.87
  Q 31.28 31.17 31.78 31.17
  Q 42.92 31.27 54.22 31.25
  A 1.21 1.19 69.1 0 1 55.12 31.66
  Q 58.96 36.03 58.97 41.92
  Q 58.97 42.50 59.55 42.50
  L 61.27 42.50
  A 0.55 0.55 0.0 0 1 61.82 43.12
  Q 60.64 52.77 51.17 55.98"
/>
<path stroke="#87a7a8" vector-effect="non-scaling-stroke" d="
  M 30.35 56.66
  L 30.29 43.62
  Q 30.29 43.09 29.76 43.04
  L 27.43 42.84"
/>
<path stroke="#aecb92" vector-effect="non-scaling-stroke" d="
  M 190.18 26.28
  L 190.34 56.73"
/>
<path stroke="#aecb92" vector-effect="non-scaling-stroke" d="
  M 187.76 56.72
  L 174.16 26.45"
/>
<path stroke="#87a7a8" vector-effect="non-scaling-stroke" d="
  M 30.17 26.47
  L 30.17 27.85"
/>
<path stroke="#87a7a8" vector-effect="non-scaling-stroke" d="
  M 28.24 31.00
  Q 27.81 31.30 27.62 31.21"
/>
<path stroke="#aecb92" vector-effect="non-scaling-stroke" d="
  M 198.95 26.36
  L 198.99 55.54"
/>
<path stroke="#91e8f5" vector-effect="non-scaling-stroke" d="
  M 198.99 55.54
  L 199.01 56.73"
/>
<path stroke="#3fb488" vector-effect="non-scaling-stroke" d="
  M 202.98 54.24
  Q 201.20 55.33 198.99 55.54"
/>
<path stroke="#aecb92" vector-effect="non-scaling-stroke" d="
  M 223.46 26.53
  L 227.55 27.80
  A 0.59 0.58 19.5 0 1 227.93 28.58
  L 226.12 33.08"
/>
<path stroke="#a9c188" vector-effect="non-scaling-stroke" d="
  M 221.43 33.02
  Q 215.94 31.44 212.40 33.56"
/>
<path stroke="#a4c3a0" vector-effect="non-scaling-stroke" d="
  M 227.92 42.51
  Q 231.05 49.16 226.33 54.04"
/>
<path stroke="#91e8f5" vector-effect="non-scaling-stroke" d="
  M 226.33 54.04
  Q 225.38 54.62 224.50 54.59
  Q 214.86 54.27 205.25 55.02
  Q 204.56 55.07 202.98 54.24"
/>
<path stroke="#aecb92" vector-effect="non-scaling-stroke" d="
  M 202.98 54.24
  L 205.87 48.18
  Q 206.12 47.67 206.60 47.97
  Q 211.77 51.17 217.78 50.18"
/>
<path stroke="#aecb92" vector-effect="non-scaling-stroke" d="
  M 213.77 44.60
  C 203.27 43.21 199.20 32.33 209.04 27.18"
/>
<path stroke="#35ac96" vector-effect="non-scaling-stroke" d="
  M 229.18 55.01
  L 226.40 54.69
  Q 226.07 54.65 226.20 54.34
  L 226.33 54.04"
/>
<path stroke="#3f7839" vector-effect="non-scaling-stroke" d="
  M 229.17 42.26
  Q 228.92 42.21 228.57 42.47"
/>
<path stroke="#91e8f5" vector-effect="non-scaling-stroke" d="
  M 168.80 16.08
  L 169.41 17.26
  A 0.91 0.90 78.6 0 0 170.14 17.75
  Q 172.20 17.92 172.49 15.78"
/>
<path stroke="#9ab498" vector-effect="non-scaling-stroke" d="
  M 39.00 43.00
  L 39.00 49.22
  Q 39.00 49.68 39.45 49.69
  C 45.55 49.93 51.32 50.42 52.90 43.57
  Q 53.03 43.00 52.44 43.00
  L 50.80 43.00
  Q 50.32 43.00 50.32 42.51
  C 50.37 33.96 43.67 33.05 36.87 33.56
  Q 36.25 33.61 36.25 34.24
  L 36.25 42.00
  Q 36.25 42.50 36.75 42.50
  L 38.50 42.50
  Q 39.00 42.50 39.00 43.00"
/>
<path stroke="#528f32" vector-effect="non-scaling-stroke" d="
  M 63.8809 43.4498
  A 5.83 0.47 89.5 0 0 64.3000 37.6159
  A 5.83 0.47 89.5 0 0 63.7791 31.7902
  A 5.83 0.47 89.5 0 0 63.3600 37.6241
  A 5.83 0.47 89.5 0 0 63.8809 43.4498"
/>
</g>
<path fill="#5c9724" d="
  M 170.83 11.50
  L 170.02 11.49
  Q 170.26 9.65 171.51 9.49
  Q 172.44 9.37 171.87 10.12
  L 170.83 11.50
  Z"
/>
<path fill="#ffffff" d="
  M 100.10 15.43
  A 3.98 3.98 0.0 0 1 96.12 19.41
  A 3.98 3.98 0.0 0 1 92.14 15.43
  A 3.98 3.98 0.0 0 1 96.12 11.45
  A 3.98 3.98 0.0 0 1 100.10 15.43
  Z
  M 96.3452 17.7592
  A 2.35 2.08 84.5 0 0 98.1904 15.2206
  A 2.35 2.08 84.5 0 0 95.8948 13.0808
  A 2.35 2.08 84.5 0 0 94.0496 15.6194
  A 2.35 2.08 84.5 0 0 96.3452 17.7592
  Z"
/>
<path fill="#ffffff" d="
  M 137.55 15.47
  A 3.95 3.95 0.0 0 1 133.60 19.42
  A 3.95 3.95 0.0 0 1 129.65 15.47
  A 3.95 3.95 0.0 0 1 133.60 11.52
  A 3.95 3.95 0.0 0 1 137.55 15.47
  Z
  M 135.76 15.45
  A 2.22 2.22 0.0 0 0 133.54 13.23
  A 2.22 2.22 0.0 0 0 131.32 15.45
  A 2.22 2.22 0.0 0 0 133.54 17.67
  A 2.22 2.22 0.0 0 0 135.76 15.45
  Z"
/>
<path fill="#ffffff" d="
  M 170.02 11.49
  L 170.83 11.50
  Q 174.54 12.09 174.71 15.59
  L 174.28 17.31
  Q 170.62 21.59 166.85 17.48
  Q 166.54 17.13 166.07 17.13
  L 162.11 17.13
  Q 161.73 17.13 161.54 17.46
  L 160.60 19.03
  A 0.69 0.68 21.3 0 1 159.86 19.35
  Q 158.33 19.00 157.60 16.84
  Q 157.23 16.89 157.14 15.81
  L 156.04 12.46
  Q 155.90 12.03 156.32 11.85
  Q 157.70 11.28 158.08 12.44
  Q 158.62 14.11 159.32 15.73
  A 0.61 0.61 0.0 0 0 160.47 15.64
  Q 160.96 13.76 161.97 12.15
  A 0.80 0.80 0.0 0 1 163.39 12.89
  L 162.49 14.99
  A 0.54 0.54 0.0 0 0 162.99 15.75
  L 165.73 15.75
  Q 166.29 15.75 166.38 15.20
  Q 166.90 12.27 170.02 11.49
  Z
  M 168.80 16.08
  L 169.41 17.26
  A 0.91 0.90 78.6 0 0 170.14 17.75
  Q 172.20 17.92 172.49 15.78
  C 173.15 12.21 167.45 12.41 168.80 16.08
  Z"
/>
<path fill="#ffffff" d="
  M 183.93 15.60
  Q 184.80 16.45 184.44 17.07
  Q 182.66 20.51 178.42 19.12
  Q 177.54 18.83 177.57 17.46
  Q 178.42 17.11 178.99 17.16
  Q 180.12 17.77 181.25 17.76
  Q 181.91 17.75 181.56 17.19
  Q 181.14 16.52 179.53 16.73
  L 177.94 15.42
  Q 176.90 10.35 182.90 11.89
  Q 183.40 12.02 183.50 12.53
  Q 183.57 12.83 183.30 13.09
  A 0.38 0.38 0.0 0 1 183.02 13.19
  L 180.41 13.03
  A 0.80 0.79 54.2 0 0 180.16 14.59
  L 183.93 15.60
  Z"
/>
<path fill="#ffffff" d="
  M 72.61 11.94
  C 80.15 10.01 80.59 18.08 74.93 17.12
  A 0.63 0.62 -83.9 0 0 74.20 17.71
  Q 74.14 18.99 72.93 19.31
  A 0.66 0.66 0.0 0 1 72.09 18.69
  L 71.96 12.80
  Q 71.94 12.11 72.61 11.94
  Z
  M 76.7289 14.2746
  A 0.96 0.96 0.0 0 0 75.8012 13.2833
  L 75.0417 13.2581
  A 0.96 0.96 0.0 0 0 74.0504 14.1857
  L 74.0311 14.7654
  A 0.96 0.96 0.0 0 0 74.9588 15.7567
  L 75.7183 15.7819
  A 0.96 0.96 0.0 0 0 76.7096 14.8543
  L 76.7289 14.2746
  Z"
/>
<path fill="#ffffff" d="
  M 84.45 17.36
  L 83.85 18.73
  A 0.96 0.96 0.0 0 1 82.01 18.34
  L 82.00 12.51
  A 0.67 0.66 85.0 0 1 82.56 11.84
  Q 85.11 11.43 87.56 12.20
  A 2.14 2.14 0.0 0 1 88.46 15.73
  Q 87.17 17.07 88.36 18.44
  A 0.49 0.49 0.0 0 1 87.99 19.25
  L 87.50 19.25
  Q 86.98 19.25 86.66 18.84
  L 85.41 17.24
  A 0.56 0.56 0.0 0 0 84.45 17.36
  Z
  M 86.71 14.50
  A 1.38 1.38 0.0 0 0 85.33 13.12
  A 1.38 1.38 0.0 0 0 83.95 14.50
  A 1.38 1.38 0.0 0 0 85.33 15.88
  A 1.38 1.38 0.0 0 0 86.71 14.50
  Z"
/>
<path fill="#ffffff" d="
  M 104.95 13.04
  L 103.70 13.25
  Q 103.25 13.33 103.25 12.87
  L 103.25 12.25
  Q 103.25 11.75 103.75 11.75
  L 107.03 11.75
  A 0.73 0.73 0.0 0 1 107.76 12.53
  L 107.41 18.04
  A 0.99 0.99 0.0 0 1 106.86 18.86
  Q 105.03 19.76 103.04 18.94
  A 0.78 0.78 0.0 0 1 103.50 17.46
  L 105.04 17.80
  A 0.61 0.60 -84.3 0 0 105.77 17.20
  L 105.71 13.66
  A 0.66 0.65 -5.4 0 0 104.95 13.04
  Z"
/>
<path fill="#ffffff" d="
  M 114.27 14.49
  Q 115.57 14.23 116.63 14.90
  A 0.50 0.50 0.0 0 1 116.44 15.82
  L 113.74 16.22
  A 0.59 0.59 0.0 0 0 113.24 16.91
  Q 113.39 17.70 114.25 17.68
  Q 115.83 17.64 117.02 17.81
  A 0.72 0.72 0.0 0 1 116.92 19.24
  L 112.13 19.25
  A 0.62 0.61 89.5 0 1 111.51 18.63
  L 111.56 12.40
  A 0.65 0.65 0.0 0 1 112.20 11.75
  Q 114.57 11.73 116.94 11.78
  A 0.78 0.70 -41.0 0 1 116.75 13.25
  L 114.93 13.25
  Q 114.40 13.25 113.90 13.44
  Q 112.89 13.81 113.67 14.36
  Q 113.94 14.55 114.27 14.49
  Z"
/>
<path fill="#ffffff" d="
  M 124.50 13.93
  L 124.50 18.52
  A 0.90 0.90 0.0 0 1 122.75 18.83
  C 122.20 17.30 123.17 14.85 122.61 13.84
  Q 122.12 12.96 120.87 13.26
  Q 120.28 13.41 120.28 12.81
  L 120.28 12.39
  A 0.64 0.64 0.0 0 1 120.92 11.75
  L 126.23 11.75
  A 0.75 0.74 43.9 0 1 126.26 13.24
  L 125.13 13.28
  A 0.65 0.65 0.0 0 0 124.50 13.93
  Z"
/>
<path fill="#ffffff" d="
  M 150.53 17.82
  Q 148.46 17.23 147.30 18.84
  Q 147.01 19.25 146.50 19.25
  L 146.11 19.25
  Q 145.37 19.25 145.67 18.58
  L 148.30 12.64
  A 1.51 1.51 0.0 0 1 151.05 12.62
  L 153.59 18.08
  A 0.86 0.86 0.0 0 1 152.23 19.07
  L 151.40 18.31
  Q 151.02 17.96 150.53 17.82
  Z
  M 149.9247 16.3178
  A 1.05 0.77 78.2 0 0 150.4637 15.1325
  A 1.05 0.77 78.2 0 0 149.4953 14.2622
  A 1.05 0.77 78.2 0 0 148.9563 15.4475
  A 1.05 0.77 78.2 0 0 149.9247 16.3178
  Z"
/>
<path fill="#22d1eb" d="
  M 172.49 15.78
  Q 172.20 17.92 170.14 17.75
  A 0.91 0.90 78.6 0 1 169.41 17.26
  L 168.80 16.08
  Q 170.82 15.22 172.49 15.78
  Z"
/>
<path fill="#22d1eb" d="
  M 174.71 15.59
  L 177.94 15.42
  L 179.53 16.73
  Q 179.19 16.83 178.99 17.16
  Q 178.42 17.11 177.57 17.46
  Q 176.06 17.05 174.28 17.31
  L 174.71 15.59
  Z"
/>
<path fill="#22d1eb" d="
  M 184.44 17.07
  Q 184.80 16.45 183.93 15.60
  L 207.81 15.91
  A 0.38 0.37 -87.2 0 1 208.18 16.33
  Q 208.14 16.79 207.51 16.83
  Q 196.11 17.66 184.44 17.07
  Z"
/>
<path fill="#22d1eb" d="
  M 157.14 15.81
  Q 157.23 16.89 157.60 16.84
  Q 155.63 17.65 154.42 16.79
  A 0.63 0.63 0.0 0 1 155.03 15.69
  Q 156.06 16.12 157.14 15.81
  Z"
/>
<path fill="#0e4e51" d="
  M 179.53 16.73
  Q 181.14 16.52 181.56 17.19
  Q 181.91 17.75 181.25 17.76
  Q 180.12 17.77 178.99 17.16
  Q 179.19 16.83 179.53 16.73
  Z"
/>
<rect fill="#22d1eb" x="-19.32" y="-1.14" transform="translate(46.08,22.57) rotate(-0.2)" width="38.64" height="2.28" rx="1.10"/>
<path fill="#ffffff" d="
  M 103.12 26.46
  Q 107.37 27.81 109.80 30.54
  A 0.65 0.64 47.8 0 1 109.76 31.45
  L 107.21 33.82
  L 105.15 35.52
  Q 104.74 35.86 104.29 35.56
  L 100.88 33.33
  Q 95.59 31.71 91.53 34.74
  C 87.78 37.54 87.80 43.82 90.62 47.17
  Q 94.37 51.63 101.26 49.38
  Q 101.75 49.22 101.75 48.71
  L 101.77 40.88
  L 109.67 41.04
  L 109.54 52.31
  Q 109.53 53.73 108.22 54.29
  L 102.16 56.87
  Q 96.17 57.67 90.51 56.45
  C 76.31 50.53 76.04 31.94 90.32 26.53
  Q 96.85 24.87 103.12 26.46
  Z"
/>
<path fill="#ffffff" d="
  M 223.46 26.53
  L 227.55 27.80
  A 0.59 0.58 19.5 0 1 227.93 28.58
  L 226.12 33.08
  Q 226.16 35.09 221.43 33.02
  Q 215.94 31.44 212.40 33.56
  Q 211.40 36.44 214.21 37.33
  C 217.91 38.50 223.50 39.03 227.92 42.51
  Q 231.05 49.16 226.33 54.04
  Q 225.38 54.62 224.50 54.59
  Q 214.86 54.27 205.25 55.02
  Q 204.56 55.07 202.98 54.24
  L 205.87 48.18
  Q 206.12 47.67 206.60 47.97
  Q 211.77 51.17 217.78 50.18
  C 220.92 50.93 222.58 47.11 218.85 46.06
  Q 216.00 45.26 213.77 44.60
  C 203.27 43.21 199.20 32.33 209.04 27.18
  Q 216.16 24.51 223.46 26.53
  Z"
/>
<path fill="#5c9724" d="
  M 115.52 26.70
  L 112.46 26.80
  A 0.30 0.30 0.0 0 0 112.44 27.40
  L 114.32 27.60
  Q 114.91 27.67 114.90 28.27
  L 114.68 37.46
  Q 113.53 36.91 112.57 36.47
  C 110.36 35.48 108.70 36.37 107.21 33.82
  L 109.76 31.45
  A 0.65 0.64 47.8 0 0 109.80 30.54
  Q 107.37 27.81 103.12 26.46
  L 115.52 26.70
  Z"
/>
<path fill="#0e4e51" d="
  M 30.17 26.47
  L 30.17 27.85
  Q 28.72 27.96 28.24 31.00
  Q 27.81 31.30 27.62 31.21
  Q 27.00 28.79 27.33 26.95
  Q 27.44 26.32 28.07 26.36
  L 30.17 26.47
  Z"
/>
<path fill="#ffffff" d="
  M 51.60 26.92
  L 56.68 29.80
  Q 57.42 30.22 56.57 30.22
  L 31.52 30.45
  Q 31.10 30.46 31.20 30.87
  Q 31.28 31.17 31.78 31.17
  Q 42.92 31.27 54.22 31.25
  A 1.21 1.19 69.1 0 1 55.12 31.66
  Q 58.96 36.03 58.97 41.92
  Q 58.97 42.50 59.55 42.50
  L 61.27 42.50
  A 0.55 0.55 0.0 0 1 61.82 43.12
  Q 60.64 52.77 51.17 55.98
  Q 41.13 57.12 30.35 56.66
  L 30.29 43.62
  Q 30.29 43.09 29.76 43.04
  L 27.43 42.84
  L 27.62 31.21
  Q 27.81 31.30 28.24 31.00
  Q 28.95 31.43 29.74 31.17
  Q 30.24 31.01 30.23 30.48
  L 30.17 27.85
  L 30.17 26.47
  Q 41.28 25.70 51.60 26.92
  Z
  M 39.00 43.00
  L 39.00 49.22
  Q 39.00 49.68 39.45 49.69
  C 45.55 49.93 51.32 50.42 52.90 43.57
  Q 53.03 43.00 52.44 43.00
  L 50.80 43.00
  Q 50.32 43.00 50.32 42.51
  C 50.37 33.96 43.67 33.05 36.87 33.56
  Q 36.25 33.61 36.25 34.24
  L 36.25 42.00
  Q 36.25 42.50 36.75 42.50
  L 38.50 42.50
  Q 39.00 42.50 39.00 43.00
  Z"
/>
<path fill="#ffffff" d="
  M 75.12 26.29
  L 75.03 56.74
  L 66.29 56.59
  L 66.42 26.51
  L 75.12 26.29
  Z"
/>
<path fill="#488640" d="
  M 75.12 26.29
  L 90.32 26.53
  C 76.04 31.94 76.31 50.53 90.51 56.45
  C 85.39 57.32 80.23 56.49 75.03 56.74
  L 75.12 26.29
  Z"
/>
<path fill="#5c9724" d="
  M 162.60 26.62
  Q 166.48 28.16 162.43 33.24
  L 161.51 33.22
  L 152.45 32.98
  Q 155.11 33.04 154.07 27.55
  Q 153.99 27.12 153.57 27.04
  L 151.24 26.57
  L 162.60 26.62
  Z"
/>
<path fill="#5c9724" d="
  M 190.18 26.28
  L 190.34 56.73
  L 187.76 56.72
  L 174.16 26.45
  L 190.18 26.28
  Z"
/>
<path fill="#ffffff" d="
  M 190.18 26.28
  L 198.95 26.36
  L 198.99 55.54
  L 199.01 56.73
  L 190.34 56.73
  L 190.18 26.28
  Z"
/>
<path fill="#5c9724" d="
  M 198.95 26.36
  Q 204.37 25.60 209.04 27.18
  C 199.20 32.33 203.27 43.21 213.77 44.60
  Q 212.56 44.60 212.74 45.77
  A 0.95 0.94 -30.4 0 1 212.55 46.49
  L 211.71 47.54
  A 0.82 0.82 0.0 0 0 212.16 48.84
  L 217.78 50.18
  Q 211.77 51.17 206.60 47.97
  Q 206.12 47.67 205.87 48.18
  L 202.98 54.24
  Q 201.20 55.33 198.99 55.54
  L 198.95 26.36
  Z"
/>
<path fill="#5c9724" d="
  M 226.12 33.08
  L 227.93 28.58
  A 0.59 0.58 19.5 0 0 227.55 27.80
  L 223.46 26.53
  L 226.87 27.15
  Q 227.27 27.22 227.61 27.00
  L 228.48 26.44
  A 0.49 0.49 0.0 0 1 229.24 26.85
  L 229.25 32.51
  Q 229.26 33.26 228.51 33.22
  L 226.12 33.08
  Z"
/>
<path fill="#488640" d="
  M 66.42 26.51
  L 66.29 56.59
  L 51.17 55.98
  Q 60.64 52.77 61.82 43.12
  A 0.55 0.55 0.0 0 0 61.27 42.50
  L 59.55 42.50
  Q 58.97 42.50 58.97 41.92
  Q 58.96 36.03 55.12 31.66
  A 1.21 1.19 69.1 0 0 54.22 31.25
  Q 42.92 31.27 31.78 31.17
  Q 31.28 31.17 31.20 30.87
  Q 31.10 30.46 31.52 30.45
  L 56.57 30.22
  Q 57.42 30.22 56.68 29.80
  L 51.60 26.92
  L 66.42 26.51
  Z
  M 63.8809 43.4498
  A 5.83 0.47 89.5 0 0 64.3000 37.6159
  A 5.83 0.47 89.5 0 0 63.7791 31.7902
  A 5.83 0.47 89.5 0 0 63.3600 37.6241
  A 5.83 0.47 89.5 0 0 63.8809 43.4498
  Z"
/>
<path fill="#ffffff" d="
  M 151.24 26.57
  L 153.57 27.04
  Q 153.99 27.12 154.07 27.55
  Q 155.11 33.04 152.45 32.98
  L 145.55 33.04
  Q 145.03 33.05 145.03 33.57
  L 144.93 56.53
  L 136.32 56.56
  L 136.23 33.55
  Q 136.23 33.02 135.70 33.02
  L 130.21 33.03
  L 127.23 32.99
  Q 126.67 32.98 126.70 32.42
  L 126.89 28.29
  A 0.64 0.63 4.8 0 0 126.33 27.63
  L 124.16 27.39
  Q 123.49 27.31 123.49 27.98
  L 123.57 56.56
  L 115.11 56.57
  L 115.00 40.74
  L 114.68 37.46
  L 114.90 28.27
  Q 114.91 27.67 114.32 27.60
  L 112.44 27.40
  A 0.30 0.30 0.0 0 1 112.46 26.80
  L 115.52 26.70
  L 151.24 26.57
  Z"
/>
<path fill="#ffffff" d="
  M 162.60 26.62
  L 174.16 26.45
  L 187.76 56.72
  L 178.74 56.66
  L 176.80 51.64
  A 1.39 1.38 -10.4 0 0 175.50 50.75
  L 164.50 50.75
  A 1.23 1.23 0.0 0 0 163.35 51.55
  L 161.43 56.63
  L 152.49 56.63
  L 161.42 36.06
  L 162.43 33.24
  Q 166.48 28.16 162.60 26.62
  Z
  M 166.13 44.00
  A 0.35 0.35 0.0 0 0 166.45 44.48
  L 173.51 44.52
  A 0.35 0.35 0.0 0 0 173.84 44.04
  L 170.36 35.12
  A 0.35 0.35 0.0 0 0 169.71 35.12
  L 166.13 44.00
  Z"
/>
<path fill="#528211" d="
  M 130.21 33.03
  Q 130.19 40.34 130.70 47.74
  Q 130.97 51.58 127.33 56.51
  L 123.57 56.56
  L 123.49 27.98
  Q 123.49 27.31 124.16 27.39
  L 126.33 27.63
  A 0.64 0.63 4.8 0 1 126.89 28.29
  L 126.70 32.42
  Q 126.67 32.98 127.23 32.99
  L 130.21 33.03
  Z"
/>
<ellipse fill="#5c9724" cx="0.00" cy="0.00" transform="translate(63.83,37.62) rotate(89.5)" rx="5.83" ry="0.47"/>
<path fill="#528211" d="
  M 221.43 33.02
  Q 217.19 35.21 212.40 33.56
  Q 215.94 31.44 221.43 33.02
  Z"
/>
<path fill="#417120" d="
  M 100.88 33.33
  Q 97.65 35.94 97.01 40.21
  Q 96.92 40.76 97.47 40.89
  Q 99.42 41.34 101.77 40.88
  L 101.75 48.71
  Q 101.75 49.22 101.26 49.38
  Q 94.37 51.63 90.62 47.17
  C 87.80 43.82 87.78 37.54 91.53 34.74
  Q 95.59 31.71 100.88 33.33
  Z"
/>
<path fill="#356931" d="
  M 130.21 33.03
  L 135.70 33.02
  Q 136.23 33.02 136.23 33.55
  L 136.32 56.56
  L 127.33 56.51
  Q 130.97 51.58 130.70 47.74
  Q 130.19 40.34 130.21 33.03
  Z"
/>
<path fill="#528211" d="
  M 152.45 32.98
  L 161.51 33.22
  Q 159.55 35.93 161.42 36.06
  L 152.49 56.63
  L 144.93 56.53
  L 145.03 33.57
  Q 145.03 33.05 145.55 33.04
  L 152.45 32.98
  Z"
/>
<path fill="#356931" d="
  M 38.50 42.50
  L 36.75 42.50
  Q 36.25 42.50 36.25 42.00
  L 36.25 34.24
  Q 36.25 33.61 36.87 33.56
  C 43.67 33.05 50.37 33.96 50.32 42.51
  Q 50.32 43.00 50.80 43.00
  L 52.44 43.00
  Q 53.03 43.00 52.90 43.57
  C 51.32 50.42 45.55 49.93 39.45 49.69
  Q 39.00 49.68 39.00 49.22
  L 39.00 43.00
  Q 39.00 42.50 38.50 42.50
  Z"
/>
<path fill="#356931" d="
  M 229.17 42.26
  Q 228.92 42.21 228.57 42.47
  Q 227.99 41.23 228.60 40.67
  Q 228.91 40.38 229.13 40.74
  Q 229.43 41.23 229.17 42.26
  Z"
/>
<path fill="#5c9724" d="
  M 115.00 40.74
  L 115.11 56.57
  L 102.16 56.87
  L 108.22 54.29
  Q 109.53 53.73 109.54 52.31
  L 109.67 41.04
  L 115.00 40.74
  Z"
/>
<path fill="#488640" d="
  M 229.17 42.26
  L 229.18 55.01
  L 226.40 54.69
  Q 226.07 54.65 226.20 54.34
  L 226.33 54.04
  Q 231.05 49.16 227.92 42.51
  L 228.57 42.47
  Q 228.92 42.21 229.17 42.26
  Z"
/>
<path fill="#0e4e51" d="
  M 27.43 42.84
  L 29.76 43.04
  Q 30.29 43.09 30.29 43.62
  L 30.35 56.66
  Q 28.59 56.84 27.48 56.03
  Q 27.05 55.71 27.06 55.19
  L 27.43 42.84
  Z"
/>
<path fill="#356931" d="
  M 178.74 56.66
  L 161.43 56.63
  L 163.35 51.55
  A 1.23 1.23 0.0 0 1 164.50 50.75
  L 175.50 50.75
  A 1.39 1.38 -10.4 0 1 176.80 51.64
  L 178.74 56.66
  Z"
/>
<path fill="#22d1eb" d="
  M 226.33 54.04
  L 226.20 54.34
  Q 226.07 54.65 226.40 54.69
  L 229.18 55.01
  L 229.24 56.41
  Q 229.27 56.91 228.77 56.91
  L 199.01 56.73
  L 198.99 55.54
  Q 201.20 55.33 202.98 54.24
  Q 204.56 55.07 205.25 55.02
  Q 214.86 54.27 224.50 54.59
  Q 225.38 54.62 226.33 54.04
  Z"
/>
<path fill="#22d1eb" d="
  M 103.94 66.19
  Q 104.36 66.25 104.64 66.51
  A 0.55 0.55 0.0 0 1 104.28 67.46
  Q 86.01 67.98 67.50 67.84
  Q 63.62 67.81 60.12 67.17
  A 0.58 0.58 0.0 0 1 60.20 66.02
  Q 79.63 65.08 99.03 65.81
  C 100.65 65.87 102.12 65.97 103.94 66.19
  Z"
/>
</svg>
